<svg width="92" height="40" viewBox="0 0 92 40" fill="none" xmlns="http://www.w3.org/2000/svg">
<path d="M0 0H79.3626L92 20L79.3626 40H0L9.0989 20L0 0Z" fill="#992E9D"/>
<path d="M29.0249 26.112C28.2783 26.112 27.6063 25.984 27.0089 25.728C26.4116 25.4613 25.9423 25.088 25.6009 24.608C25.2596 24.128 25.0889 23.568 25.0889 22.928H27.0409C27.0836 23.408 27.2703 23.8027 27.6009 24.112C27.9423 24.4213 28.4169 24.576 29.0249 24.576C29.6543 24.576 30.1449 24.4267 30.4969 24.128C30.8489 23.8187 31.0249 23.424 31.0249 22.944C31.0249 22.5707 30.9129 22.2667 30.6889 22.032C30.4756 21.7973 30.2036 21.616 29.8729 21.488C29.5529 21.36 29.1049 21.2213 28.5289 21.072C27.8036 20.88 27.2116 20.688 26.7529 20.496C26.3049 20.2933 25.9209 19.984 25.6009 19.568C25.2809 19.152 25.1209 18.5973 25.1209 17.904C25.1209 17.264 25.2809 16.704 25.6009 16.224C25.9209 15.744 26.3689 15.376 26.9449 15.12C27.5209 14.864 28.1876 14.736 28.9449 14.736C30.0223 14.736 30.9023 15.008 31.5849 15.552C32.2783 16.0853 32.6623 16.8213 32.7369 17.76H30.7209C30.6889 17.3547 30.4969 17.008 30.1449 16.72C29.7929 16.432 29.3289 16.288 28.7529 16.288C28.2303 16.288 27.8036 16.4213 27.4729 16.688C27.1423 16.9547 26.9769 17.3387 26.9769 17.84C26.9769 18.1813 27.0783 18.464 27.2809 18.688C27.4943 18.9013 27.7609 19.072 28.0809 19.2C28.4009 19.328 28.8383 19.4667 29.3929 19.616C30.1289 19.8187 30.7263 20.0213 31.1849 20.224C31.6543 20.4267 32.0489 20.7413 32.3689 21.168C32.6996 21.584 32.8649 22.144 32.8649 22.848C32.8649 23.4133 32.7103 23.9467 32.4009 24.448C32.1023 24.9493 31.6596 25.3547 31.0729 25.664C30.4969 25.9627 29.8143 26.112 29.0249 26.112ZM36.6652 18.672V23.552C36.6652 23.8827 36.7399 24.1227 36.8892 24.272C37.0492 24.4107 37.3159 24.48 37.6892 24.48H38.8092V26H37.3692C36.5479 26 35.9185 25.808 35.4812 25.424C35.0439 25.04 34.8252 24.416 34.8252 23.552V18.672H33.7852V17.184H34.8252V14.992H36.6652V17.184H38.8092V18.672H36.6652ZM48.0903 21.376C48.0903 21.7067 48.069 22.0053 48.0263 22.272H41.2903C41.3436 22.976 41.605 23.5413 42.0743 23.968C42.5436 24.3947 43.1196 24.608 43.8023 24.608C44.7836 24.608 45.477 24.1973 45.8823 23.376H47.8503C47.5836 24.1867 47.0983 24.8533 46.3943 25.376C45.701 25.888 44.837 26.144 43.8023 26.144C42.9596 26.144 42.2023 25.9573 41.5303 25.584C40.869 25.2 40.3463 24.6667 39.9623 23.984C39.589 23.2907 39.4023 22.4907 39.4023 21.584C39.4023 20.6773 39.5836 19.8827 39.9463 19.2C40.3196 18.5067 40.837 17.9733 41.4983 17.6C42.1703 17.2267 42.9383 17.04 43.8023 17.04C44.6343 17.04 45.3756 17.2213 46.0263 17.584C46.677 17.9467 47.1836 18.4587 47.5463 19.12C47.909 19.7707 48.0903 20.5227 48.0903 21.376ZM46.1863 20.8C46.1756 20.128 45.9356 19.5893 45.4663 19.184C44.997 18.7787 44.4156 18.576 43.7223 18.576C43.093 18.576 42.5543 18.7787 42.1063 19.184C41.6583 19.5787 41.3916 20.1173 41.3063 20.8H46.1863ZM51.2293 18.48C51.5386 18.0747 51.96 17.7333 52.4933 17.456C53.0266 17.1787 53.6293 17.04 54.3013 17.04C55.0693 17.04 55.768 17.232 56.3973 17.616C57.0373 17.9893 57.5386 18.5173 57.9013 19.2C58.264 19.8827 58.4453 20.6667 58.4453 21.552C58.4453 22.4373 58.264 23.232 57.9013 23.936C57.5386 24.6293 57.0373 25.1733 56.3973 25.568C55.768 25.952 55.0693 26.144 54.3013 26.144C53.6293 26.144 53.032 26.0107 52.5093 25.744C51.9866 25.4667 51.56 25.1253 51.2293 24.72V30.192H49.4053V17.184H51.2293V18.48ZM56.5893 21.552C56.5893 20.944 56.4613 20.4213 56.2053 19.984C55.96 19.536 55.6293 19.2 55.2133 18.976C54.808 18.7413 54.3706 18.624 53.9013 18.624C53.4426 18.624 53.0053 18.7413 52.5893 18.976C52.184 19.2107 51.8533 19.552 51.5973 20C51.352 20.448 51.2293 20.976 51.2293 21.584C51.2293 22.192 51.352 22.7253 51.5973 23.184C51.8533 23.632 52.184 23.9733 52.5893 24.208C53.0053 24.4427 53.4426 24.56 53.9013 24.56C54.3706 24.56 54.808 24.4427 55.2133 24.208C55.6293 23.9627 55.96 23.6107 56.2053 23.152C56.4613 22.6933 56.5893 22.16 56.5893 21.552ZM62.9653 16V14.336H66.2933V26H64.4533V16H62.9653Z" fill="#FCF5FE"/>
</svg>
